# xmcd
#
# Track frame offsets:
#	187
#	13057
#	25755
#	42947
#	59730
#	78417
#	99717
#	115512
#	134245
#	152502
#
# Disc length: 2303 seconds
# Revision: 6
# Processed by: cddbd v1.5.2PL0 Copyright (c) Steve Scherf et al.
# Submitted via: dBpowerAMP V12.0
#
DISCID=8008fd0a
DTITLE=Restless Heart - Big Iron Horses
DYEAR=1992
DGENRE=Country
TTITLE0=Mending Fences
TTITLE1=We Got The Love
TTITLE2=As Far As I Can Tell
TTITLE3=When She Cries
TTITLE4=Meet Me On The Other Side
TTITLE5=Tell Me What You Dream
TTITLE6=Blame It On Love
TTITLE7=Born In A High Wind
TTITLE8=Just In Time
TTITLE9=Big Iron Horses
EXTD=
EXTT0=
EXTT1=
EXTT2=
EXTT3=
EXTT4=
EXTT5=
EXTT6=
EXTT7=
EXTT8=
EXTT9=
PLAYORDER=
